<svg xmlns="http://www.w3.org/2000/svg" viewBox="0 0 100 100">
  <rect width="100" height="100" fill="#228be6"/>
  <rect x="10" y="10" width="35" height="35" fill="white" rx="3"/>
  <rect x="55" y="10" width="35" height="35" fill="white" rx="3"/>
  <rect x="10" y="55" width="35" height="35" fill="white" rx="3"/>
  <rect x="20" y="20" width="15" height="15" fill="#228be6" rx="2"/>
  <rect x="65" y="20" width="15" height="15" fill="#228be6" rx="2"/>
  <rect x="20" y="65" width="15" height="15" fill="#228be6" rx="2"/>
  <rect x="55" y="55" width="12" height="12" fill="white" rx="1"/>
  <rect x="70" y="55" width="12" height="12" fill="white" rx="1"/>
  <rect x="85" y="55" width="5" height="12" fill="white" rx="1"/>
  <rect x="55" y="70" width="12" height="12" fill="white" rx="1"/>
  <rect x="70" y="70" width="20" height="5" fill="white" rx="1"/>
  <rect x="70" y="77" width="12" height="13" fill="white" rx="1"/>
  <rect x="55" y="85" width="12" height="5" fill="white" rx="1"/>
  <rect x="85" y="70" width="5" height="20" fill="white" rx="1"/>
</svg>


